# xmcd
# 
# Track frame offsets:
#     150
#     16198
#     28317
#     44853
#     59684
#     72465
#     84643
#     102413
#     115273
#     131745
#     149632
#     161631
#     174485
#     187111
#     196725
#     205311
#     219890
#     229975
#     243060
#     252119
#     264393
#     273039
#     280927
#     296960
#     303763
#     319701
#     332969
#     345566
# 
# Disc length: 4643
# 
# Revision: 8
# Processed by: cddbd v1.5.2PL0 Copyright (c) Steve Scherf et al.
# Submitted via: fre:ac v1.0.17
# 
DISCID=b712211c
DTITLE=Michal Tučný - No. 55 [CD2]
DYEAR=2002
DGENRE=Country
TTITLE0=Pověste ho vejš
TTITLE1=Snídaně v trávě
TTITLE2=Mám páru
TTITLE3=Tam u nebeských bran
TTITLE4=Chtěl bych být medvídkem
TTITLE5=Michalův song
TTITLE6=Lojza a Líza
TTITLE7=Prodavač
TTITLE8=Buď nad věcí
TTITLE9=Černý Bill a Bílá Nelly
TTITLE10=Včera jsem tě neviděl
TTITLE11=Být hlídačem růží
TTITLE12=20. století má na kahánku
TTITLE13=Diggy liggy
TTITLE14=Fidlej celej den
TTITLE15=Jak to doopravdy bylo s Babinským
TTITLE16=Já tajně cvičím 
TTITLE17=Červená řeka
TTITLE18=Drnová chajda
TTITLE19=Tak už nefňukej
TTITLE20=Jen tohle chci ti říct
TTITLE21=Rovnou, tady rovnou
TTITLE22=Modrá z džín
TTITLE23=Lodní zvon zvoní
TTITLE24=Karolína
TTITLE25=Spím v obilí
TTITLE26=Pane můj ...
TTITLE27=Poslední kovboj
EXTD=
EXTT0=
EXTT1=
EXTT2=
EXTT3=
EXTT4=
EXTT5=
EXTT6=
EXTT7=
EXTT8=
EXTT9=
EXTT10=
EXTT11=
EXTT12=
EXTT13=
EXTT14=
EXTT15=
EXTT16=
EXTT17=
EXTT18=
EXTT19=
EXTT20=
EXTT21=
EXTT22=
EXTT23=
EXTT24=
EXTT25=
EXTT26=
EXTT27=
PLAYORDER=
